<svg data-v-fde0c5aa="" xmlns="http://www.w3.org/2000/svg" viewBox="0 0 300 300" class="iconLeft"><!----><defs data-v-fde0c5aa=""><linearGradient data-v-fde0c5aa="" gradientTransform="rotate(25)" id="fae13f40-be45-411e-9f46-7efbfa2b0128" x1="0%" y1="0%" x2="100%" y2="0%"><stop data-v-fde0c5aa="" offset="0%" stop-color="#920DE9" stop-opacity="1"></stop><stop data-v-fde0c5aa="" offset="100%" stop-color="#1536F1" stop-opacity="1"></stop></linearGradient></defs><rect data-v-fde0c5aa="" fill="url(#fae13f40-be45-411e-9f46-7efbfa2b0128)" x="0" y="0" width="300px" height="300px" class="logo-background-square"></rect><defs data-v-fde0c5aa=""><!----></defs><g data-v-fde0c5aa="" id="a47453b3-19b6-4867-80b5-bc7fbb1901a8" fill="#ffffff" transform="matrix(2.4823329584368947,0,0,2.4823329584368947,93.4106290574884,128.30440991958818)"><path d="M4.97 14.79L4.97 14.79Q4.42 14.79 3.87 14.70Q3.32 14.60 2.82 14.37Q2.31 14.14 1.87 13.75Q1.44 13.36 1.11 12.79Q0.79 12.21 0.60 11.42Q0.42 10.63 0.42 9.58L0.42 9.58Q0.42 8.54 0.60 7.75Q0.79 6.96 1.11 6.38Q1.44 5.80 1.87 5.42Q2.31 5.04 2.82 4.81Q3.32 4.58 3.87 4.48Q4.42 4.39 4.97 4.39L4.97 4.39Q5.52 4.39 6.07 4.48Q6.62 4.58 7.13 4.81Q7.64 5.04 8.07 5.42Q8.51 5.80 8.83 6.38Q9.15 6.96 9.34 7.75Q9.52 8.54 9.52 9.58L9.52 9.58Q9.52 10.73 9.30 11.57Q9.08 12.41 8.70 13.00L8.70 13.00L9.67 14.38Q9.74 14.49 9.74 14.57L9.74 14.57Q9.74 14.67 9.68 14.74Q9.61 14.81 9.53 14.86L9.53 14.86L9.10 15.10Q9.05 15.13 9.00 15.15Q8.96 15.16 8.90 15.16L8.90 15.16Q8.82 15.16 8.74 15.11Q8.67 15.07 8.61 14.95L8.61 14.95L7.99 13.82Q7.67 14.10 7.31 14.28Q6.95 14.46 6.56 14.58Q6.17 14.69 5.77 14.74Q5.37 14.79 4.97 14.79ZM7.05 11.63L7.37 11.46Q7.53 11.35 7.67 11.54L7.67 11.54L8.02 12.04Q8.25 11.70 8.40 11.10Q8.55 10.51 8.55 9.58L8.55 9.58Q8.55 8.73 8.43 8.16Q8.30 7.58 8.09 7.23Q7.88 6.88 7.62 6.74Q7.35 6.59 7.07 6.59L7.07 6.59Q6.79 6.59 6.52 6.74Q6.26 6.88 6.05 7.23Q5.84 7.58 5.71 8.16Q5.58 8.73 5.58 9.58L5.58 9.58Q5.58 10.44 5.71 11.01Q5.84 11.59 6.05 11.94Q6.26 12.28 6.52 12.43Q6.79 12.58 7.07 12.58L7.07 12.58Q7.20 12.58 7.31 12.55L7.31 12.55L6.97 11.93Q6.92 11.84 6.94 11.76Q6.95 11.68 7.05 11.63L7.05 11.63ZM15.61 8.66L15.61 12.86Q15.61 13.25 15.73 13.43Q15.86 13.62 16.17 13.62L16.17 13.62Q16.32 13.62 16.50 13.55Q16.67 13.48 16.77 13.42L16.77 13.42L16.77 7.85Q16.77 7.73 16.82 7.63Q16.87 7.53 17.05 7.53L17.05 7.53L17.49 7.53Q17.55 7.53 17.61 7.53Q17.67 7.54 17.72 7.57Q17.76 7.60 17.79 7.67Q17.82 7.73 17.82 7.85L17.82 7.85L17.82 14.21Q17.82 14.32 17.79 14.39Q17.76 14.45 17.72 14.48Q17.67 14.51 17.61 14.52Q17.55 14.53 17.49 14.53L17.49 14.53L17.05 14.53Q16.87 14.53 16.82 14.42Q16.77 14.32 16.77 14.10L16.77 14.10Q16.62 14.15 16.35 14.25Q16.08 14.34 15.67 14.43Q15.26 14.53 14.70 14.59Q14.14 14.66 13.43 14.66L13.43 14.66Q12.69 14.66 12.15 14.54Q11.61 14.42 11.26 14.14Q10.91 13.86 10.74 13.42Q10.57 12.97 10.57 12.33L10.57 12.33L10.57 8.48Q10.57 8.24 10.61 8.06Q10.65 7.88 10.77 7.77Q10.88 7.65 11.09 7.59Q11.29 7.53 11.62 7.53L11.62 7.53L14.62 7.53Q15.01 7.53 15.22 7.64Q15.42 7.76 15.51 7.93Q15.60 8.10 15.60 8.30Q15.61 8.50 15.61 8.66L15.61 8.66ZM19.08 13.58L19.08 8.48Q19.08 8.24 19.12 8.06Q19.16 7.88 19.28 7.77Q19.39 7.65 19.60 7.59Q19.80 7.53 20.13 7.53L20.13 7.53L23.13 7.53Q23.44 7.53 23.63 7.59Q23.82 7.65 23.93 7.77Q24.04 7.90 24.08 8.08Q24.12 8.26 24.12 8.51L24.12 8.51L24.12 9.02L25.63 7.54Q25.79 7.40 25.92 7.40L25.92 7.40Q25.99 7.40 26.05 7.43Q26.11 7.46 26.15 7.50L26.15 7.50L26.46 7.82Q26.56 7.92 26.56 8.05L26.56 8.05Q26.56 8.12 26.51 8.20Q26.47 8.28 26.37 8.35L26.37 8.35L24.12 10.10L24.12 13.56Q24.12 13.80 24.08 13.98Q24.05 14.16 23.93 14.28Q23.82 14.40 23.60 14.46Q23.38 14.53 23.00 14.53L23.00 14.53L20.13 14.53Q19.80 14.53 19.60 14.46Q19.39 14.40 19.28 14.29Q19.16 14.17 19.12 13.99Q19.08 13.82 19.08 13.58L19.08 13.58ZM26.67 13.58L26.67 8.48Q26.67 8.24 26.71 8.06Q26.76 7.88 26.87 7.77Q26.99 7.65 27.19 7.59Q27.40 7.53 27.73 7.53L27.73 7.53L30.72 7.53Q31.04 7.53 31.23 7.58Q31.42 7.64 31.53 7.76Q31.64 7.88 31.68 8.05Q31.71 8.23 31.71 8.48L31.71 8.48L31.71 13.59Q31.71 13.82 31.68 14.00Q31.64 14.17 31.53 14.29Q31.42 14.41 31.23 14.47Q31.04 14.53 30.72 14.53L30.72 14.53L27.73 14.53Q27.40 14.53 27.19 14.46Q26.99 14.40 26.87 14.29Q26.76 14.17 26.71 13.99Q26.67 13.82 26.67 13.58L26.67 13.58ZM26.93 4.60L26.93 4.60Q26.93 4.13 27.11 3.71Q27.29 3.29 27.60 2.99Q27.90 2.68 28.32 2.50Q28.74 2.32 29.21 2.32L29.21 2.32Q29.67 2.32 30.09 2.50Q30.50 2.68 30.81 2.99Q31.12 3.29 31.30 3.71Q31.48 4.13 31.48 4.60L31.48 4.60Q31.48 5.07 31.30 5.48Q31.12 5.89 30.81 6.20Q30.50 6.51 30.09 6.69Q29.67 6.87 29.21 6.87L29.21 6.87Q28.74 6.87 28.32 6.69Q27.90 6.51 27.60 6.20Q27.29 5.89 27.11 5.48Q26.93 5.07 26.93 4.60ZM36.92 14.77L36.92 14.77Q36.41 14.77 35.90 14.68Q35.38 14.60 34.91 14.42Q34.45 14.25 34.04 13.96Q33.64 13.67 33.34 13.25Q33.04 12.84 32.87 12.29Q32.70 11.74 32.70 11.03L32.70 11.03Q32.70 10.33 32.87 9.78Q33.04 9.23 33.34 8.81Q33.64 8.39 34.04 8.10Q34.45 7.81 34.91 7.63Q35.38 7.45 35.90 7.37Q36.41 7.29 36.92 7.29L36.92 7.29Q37.39 7.29 37.89 7.35Q38.38 7.40 38.85 7.56Q39.32 7.71 39.73 7.97Q40.15 8.24 40.46 8.65Q40.77 9.06 40.95 9.63Q41.13 10.20 41.13 10.97L41.13 10.97Q41.13 11.76 40.95 12.36Q40.78 12.95 40.47 13.37Q40.15 13.79 39.74 14.06Q39.33 14.33 38.87 14.49Q38.40 14.64 37.90 14.70Q37.40 14.77 36.92 14.77ZM39.02 13.13L39.02 13.13Q39.23 13.13 39.44 13.03Q39.65 12.94 39.81 12.70Q39.97 12.46 40.07 12.04Q40.17 11.62 40.17 10.97L40.17 10.97Q40.17 10.36 40.07 9.96Q39.97 9.56 39.81 9.33Q39.64 9.11 39.44 9.02Q39.23 8.93 39.02 8.93L39.02 8.93Q38.86 8.93 38.65 9.00Q38.45 9.06 38.28 9.29Q38.10 9.51 37.99 9.92Q37.87 10.34 37.87 11.03L37.87 11.03Q37.87 11.72 37.97 12.13Q38.06 12.55 38.22 12.77Q38.38 12.99 38.59 13.06Q38.79 13.13 39.02 13.13ZM45.11 4.71L46.13 4.71Q46.25 4.71 46.34 4.74Q46.43 4.77 46.50 4.85Q46.57 4.92 46.63 5.04Q46.70 5.17 46.76 5.35L46.76 5.35L49.90 13.73Q49.94 13.82 49.95 13.90Q49.96 13.97 49.96 14.05L49.96 14.05Q49.96 14.29 49.82 14.41Q49.67 14.53 49.51 14.53L49.51 14.53L45.63 14.53Q45.45 14.53 45.33 14.48Q45.21 14.44 45.13 14.38Q45.05 14.31 45.00 14.25Q44.96 14.18 44.95 14.12L44.95 14.12L44.87 13.88L42.95 13.88L42.90 14.09Q42.88 14.19 42.85 14.27Q42.83 14.35 42.79 14.41Q42.75 14.46 42.67 14.50Q42.60 14.53 42.49 14.53L42.49 14.53L41.78 14.53Q41.56 14.53 41.56 14.36L41.56 14.36Q41.56 14.29 41.59 14.21Q41.61 14.12 41.65 14.01L41.65 14.01L44.51 5.36Q44.61 5.04 44.74 4.88Q44.87 4.72 45.11 4.71L45.11 4.71ZM43.88 10.37L43.16 13.04L44.64 13.04L43.88 10.37ZM50.66 13.58L50.66 8.48Q50.66 8.24 50.70 8.06Q50.74 7.88 50.86 7.77Q50.98 7.65 51.18 7.59Q51.39 7.53 51.71 7.53L51.71 7.53L54.51 7.53Q54.82 7.53 55.04 7.59Q55.26 7.65 55.36 7.80L55.36 7.80Q55.45 7.74 55.57 7.67Q55.70 7.59 55.85 7.53Q56 7.47 56.17 7.43Q56.34 7.39 56.53 7.39L56.53 7.39Q57.18 7.39 57.55 7.84Q57.91 8.29 57.91 9.17L57.91 9.17L57.91 14.21Q57.91 14.32 57.88 14.39Q57.85 14.45 57.81 14.48Q57.76 14.51 57.70 14.52Q57.64 14.53 57.58 14.53L57.58 14.53L57.14 14.53Q56.96 14.53 56.91 14.42Q56.86 14.32 56.86 14.21L56.86 14.21L56.86 9.10Q56.86 8.71 56.72 8.50Q56.58 8.30 56.27 8.30L56.27 8.30Q56.12 8.30 55.96 8.38Q55.79 8.47 55.70 8.57L55.70 8.57L55.70 13.57Q55.70 13.81 55.66 13.99Q55.62 14.16 55.50 14.28Q55.38 14.40 55.18 14.46Q54.97 14.53 54.65 14.53L54.65 14.53L51.71 14.53Q51.39 14.53 51.18 14.46Q50.98 14.40 50.86 14.29Q50.74 14.17 50.70 13.99Q50.66 13.82 50.66 13.58L50.66 13.58ZM64.05 7.29L64.05 7.29Q64.48 7.29 64.92 7.34Q65.36 7.39 65.75 7.47Q66.14 7.55 66.47 7.65Q66.79 7.75 67.00 7.85L67.00 7.85Q67.03 7.86 67.07 7.89Q67.11 7.92 67.11 7.99L67.11 7.99Q67.11 8.01 67.10 8.05Q67.09 8.08 67.09 8.11L67.09 8.11L67.01 8.52Q66.99 8.60 66.97 8.62Q66.94 8.63 66.92 8.63L66.92 8.63Q66.89 8.63 66.79 8.61Q66.70 8.59 66.59 8.59L66.59 8.59Q66.20 8.59 65.97 8.80Q65.75 9.01 65.69 9.53L65.69 9.53L65.30 12.72Q65.25 13.15 65.02 13.51Q64.79 13.88 64.36 14.16Q63.93 14.44 63.30 14.60Q62.67 14.77 61.82 14.77L61.82 14.77Q61.28 14.77 60.78 14.70Q60.27 14.64 59.85 14.54Q59.42 14.45 59.10 14.36Q58.78 14.27 58.63 14.21L58.63 14.21Q58.57 14.20 58.54 14.17Q58.51 14.15 58.51 14.10L58.51 14.10Q58.51 14.07 58.52 14.03Q58.52 14 58.54 13.95L58.54 13.95L58.62 13.57Q58.63 13.51 58.67 13.48Q58.70 13.45 58.79 13.45L58.79 13.45Q59.01 13.45 59.24 13.42Q59.47 13.40 59.67 13.30Q59.86 13.19 60.01 12.98Q60.16 12.77 60.21 12.39L60.21 12.39L60.69 9.09Q60.76 8.57 61.07 8.22Q61.38 7.88 61.83 7.67Q62.29 7.46 62.86 7.37Q63.44 7.29 64.05 7.29Z"></path></g><defs data-v-fde0c5aa=""><!----></defs><g data-v-fde0c5aa="" id="5abfb592-ef67-42e7-a009-2c17d231ae21" stroke="none" fill="#ffffff" transform="matrix(0.4891482887072903,0,0,0.4891482887072903,36.30501819199508,125.53897937791574)"><path d="M90.522 28.209c-.253.498-.51.997-.772 1.495-.134.249-.265.498-.398.747-.989 2.169-2.478 4.025-3.629 6.162-.128.222-.253.443-.379.664l-.456.809c-.268.446-.524.896-.772 1.349-.25.453-.489.908-.732 1.364-1.058 1.899-1.844 3.843-3.144 5.55a15.58 15.58 0 01-.983 1.179c-1.042 1.13-2.257 2.116-3.56 2.989-.22.152-.438.3-.661.446-1.334.873-2.728 1.615-4.244 2.116a15.506 15.506 0 01-1.71.486c-.903.2-1.825.326-2.75.366-.309.013-.617.015-.925.008a14.793 14.793 0 01-3.567-.462c-.23-.059-.461-.123-.688-.191-1.796-.507-3.357-1.492-4.889-2.507-.2-.137-.4-.272-.601-.407-1.407-.938-2.844-1.823-4.349-2.608a76.224 76.224 0 00-.693-.359c-.924-.473-1.849-.942-2.761-1.438a27.604 27.604 0 01-.869-.471c-.329-.145-.661-.291-.988-.441-.42-.194-.836-.401-1.247-.621a4.69 4.69 0 00.611-.542c.222-.263.415-.541.582-.826 1.131-1.692 1.131-3.814.616-5.639a11.34 11.34 0 01-.309-1.55c-.486-1.649.002-3.454.011-5.126 0-.112 0-.223-.005-.333a4.868 4.868 0 00-.073-.712c-.135-.9-.627-1.804-1.366-2.379 1.56.082 3.12.575 4.523 1.207a17.584 17.584 0 011.385.672 53.095 53.095 0 011.35.667 26.814 26.814 0 001.48.619c.18.042.361.076.543.104.549.084 1.1.11 1.627.123.278-.001.557-.014.837-.034 1.394-.104 2.782-.426 4.12-.76a30.892 30.892 0 001.639-.441c.246-.073.493-.147.737-.225.276-.098.555-.191.832-.281.276-.089.556-.175.833-.26 2.1-.568 4.233-1.471 6.242-2.436.281-.133.556-.269.828-.408 2.221-1.292 4.67-2.264 6.775-3.759.219-.165.434-.337.645-.52.211-.183.413-.378.609-.585.148-.178.282-.368.396-.57.228-.405.373-.86.412-1.383-.062-.221-.176-.407-.358-.523a.912.912 0 00-.567-.125 6.123 6.123 0 00-.78.189 7.54 7.54 0 00-.741.274c-.935.408-1.807 1.027-2.696 1.622-.217.152-.434.304-.652.453a43.771 43.771 0 01-1.078.788c-.185.129-.367.256-.553.382a20.365 20.365 0 01-1.93 1.193c-2.405 1.352-5.074 2.087-7.767 2.641a71.05 71.05 0 01-.897.178c-2.029.459-3.999 1.034-6.12.971a10.143 10.143 0 01-2.374-.222 21.122 21.122 0 01-.859-.251 18.496 18.496 0 01-.729-.252 72.772 72.772 0 01-1.428-.594c-2.508-.916-6.204-3.132-8.448-.622a2.18 2.18 0 00-.303.661c-1.925-.708-4.023-.973-5.967-1.776a41.43 41.43 0 01-.73-.232c-1.208-.403-2.389-.896-3.644-1.275a13.862 13.862 0 00-1.378-.342 10.22 10.22 0 00-1.432-.167 9.326 9.326 0 00-.729.023c-1.077.059-2.04.589-2.817 1.195a3.32 3.32 0 01-.431.304c-.131.071-.248.104-.343.071a4.736 4.736 0 01-1.231-.401 7.94 7.94 0 01-.829-.405c-1.424-.716-2.574-1.918-3.071-3.441a3.068 3.068 0 01-.088-.491 3.983 3.983 0 01.191-2.117c.027-.113.053-.226.076-.339.068-.339.107-.678.055-1.019a6.676 6.676 0 00-.11-.479c.006-.357-.256-.671-.359-.984-.216-.432-.454-.856-.689-1.282l-.235-.431a22.54 22.54 0 01-.487-.927c-.235-.51-.485-1.018-.724-1.529-.08-.171-.158-.342-.234-.515a12.23 12.23 0 01-.863-2.783 20.8 20.8 0 01-.1-.574c-.228-1.068-.144-2.183-.325-3.24a5.687 5.687 0 00-.096-.449c-.062-.503-.324-1.025-.794-1.078-.366 0-.627.471-.73.863-.036.14-.06.289-.076.443a7.134 7.134 0 00-.016.962c.007.195.017.391.025.581a25.139 25.139 0 00.52 4.902c.276 1.606.956 3.174 1.664 4.617.074.174.146.349.211.526.065.178.126.358.179.54.104.313.209.575.182.878.012.171.015.345.005.519-.05.178-.098.357-.144.537-.044.18-.087.361-.122.55-.235 1.437-.183 2.9.415 4.265.063.162.131.321.203.479a7.586 7.586 0 001.792 2.475c-1.137.273-2.206.968-3.122 2.211a9.79 9.79 0 00-1.203 2.223c-.377.679-.652 1.4-.871 2.143-.109.371-.203.748-.29 1.126l-.179.892c-.275 1.261-.538 2.587-.818 3.857-.051.196-.106.389-.165.58a130.364 130.364 0 01-.672 2.652c-.336 1.364-.805 2.667-1.292 3.958-.098.259-.196.517-.296.776-1.056 2.784-2.193 5.436-2.558 8.35-.031.31-.051.624-.057.942-.037 1.896.422 3.802 1.384 5.601.066.156.104.331.131.521a6.23 6.23 0 00.29 1.732c.455 1.371 1.242 2.52 2.355 3.32.157.146.315.29.476.433a58.77 58.77 0 002.658 2.1c.557.386 1.115.77 1.675 1.15.187.129.373.257.56.383.251.164.5.33.749.495 1.779 1.091 3.441 2.328 5.288 3.218.289.153.579.31.87.462 2.186 1.148 4.435 2.2 6.715 3.213l.763.339c2.399 1.018 4.674 2.167 6.648 3.727.227.17.453.343.675.517.223.177.443.354.66.535.183.171.358.344.528.523.851.896 1.536 1.911 1.986 3.051.078.201.149.404.213.613.61 1.863.436 3.808-.064 5.634a14.535 14.535 0 01-.645 1.808 27.525 27.525 0 01-1.063 2.43 4.85 4.85 0 00-.182.528c-.05.176-.086.355-.107.532-.021.18-.025.356-.01.53.002.23.059.459.157.664.365 1.131 1.761.969 2.463.361a4.09 4.09 0 00.936-.969c.394-.698.685-1.431.915-2.186.077-.251.147-.508.212-.762.623-2.645 1.06-5.295 1.213-7.965a33.65 33.65 0 00-.038-1.797 9.7 9.7 0 00-.084-.843c-.197-1.377-.689-2.688-1.639-3.791a10.04 10.04 0 00-.52-.645 8.132 8.132 0 00-1.071-1.044 7.526 7.526 0 00-.624-.431 10.388 10.388 0 00-.659-.371c-1.89-.844-3.86-1.417-5.865-2.099a75.955 75.955 0 01-.729-.229c-1.457-.462-2.894-.952-4.243-1.62a63.157 63.157 0 01-.708-.309 31.583 31.583 0 01-2.113-1.03 36.063 36.063 0 01-.808-.374c-1.891-.894-3.789-1.928-5.576-3.164a27.329 27.329 0 01-.619-.427 46.323 46.323 0 01-1.828-1.363c-.229-.175-.457-.353-.685-.528a11.318 11.318 0 01-.626-.568 8.32 8.32 0 01-1.009-1.196 5.65 5.65 0 01-.172-.263c-.324-.571-.665-1.15-.841-1.765a4.23 4.23 0 01-.065-.264c-.187-.764-.248-1.549-.132-2.321l.048-.355c.195-1.315.535-2.695-.06-3.722a2.248 2.248 0 00-.5-.589c-3.453-2.019-1.878-6.525-.969-9.614.099-.304.2-.606.3-.91.503-1.514 1.003-3.023 1.338-4.562.16-.583.321-1.164.488-1.739.169-.574.345-1.145.533-1.707.087-.289.172-.575.252-.864.161-.575.303-1.157.415-1.747.069-.29.136-.58.203-.869.199-.868.391-1.736.587-2.601.107-.344.23-.683.372-1.016.038-.098.077-.195.119-.293.405-1.111 1.581-2.198 2.808-1.653a3.39 3.39 0 01.504.228c.083.042.165.088.245.136.938.446 1.075 1.268.938 2.133a6.706 6.706 0 01-.063.327c-.377 1.186-.83 2.301-1.193 3.475a46.648 46.648 0 00-.253.68c-.366 1.167-.716 2.227-1.059 3.355-.067.231-.133.463-.196.697a75.822 75.822 0 01-.407 1.61c-.14.536-.281 1.073-.411 1.612-.449 1.649-.631 3.306-.692 5.038l-.011.351c.029.519.016 1.043.08 1.564.012.104.028.208.049.314a5.243 5.243 0 00.331 1.109c.432.858 1.125 1.973 2.196 1.773a2.595 2.595 0 00.528-.125c.813-.247 1.476-.941 1.582-1.789.007-.087.007-.174.001-.26-.022-.301-.119-.606-.231-.907-.038-.102-.077-.2-.116-.3-.218-.51-.446-.997-.635-1.502-.031-.085-.062-.17-.091-.256-.3-.871-.481-1.775-.425-2.678l-.002-.326-.001-.652.02-.283c.06-.754.163-1.506.271-2.271l.043-.294c.105-.683.223-1.37.361-2.057.025-.115.052-.23.079-.345s.055-.229.084-.343a29.62 29.62 0 01.658-2.266c.061-.187.125-.372.189-.557.159-.365.29-.722.421-1.088l.099-.278a36.899 36.899 0 001.296-3.482l.09-.258a44.6 44.6 0 00.177-.515c.115-.285.238-.565.371-.842.848-2.214 3.034-4.158 5.443-3.378.262.079.525.157.79.235.924.313 1.832.644 2.754.954.103.035.205.069.308.102.608.222 1.232.398 1.831.617.101.037.201.074.3.113.939.271 1.895.599 2.705 1.118.09.058.178.119.266.181.387.274.77.586 1.097.94a4.9 4.9 0 01.701.992c.049.09.094.181.138.273.14.275.26.558.365.845.035.096.069.192.102.291.184.483.313.981.404 1.486.018.101.035.203.051.307.036.321.07.647.105.975l.033.328c.044 1.097.346 2.152.237 3.25a8.824 8.824 0 01-.024.321c-.071.743-.262 1.448-.751 2.067-1.02 1.096-2.645 1.58-4.027 1.146a3.21 3.21 0 01-.794-.373 2.846 2.846 0 01-.807-.548 2.033 2.033 0 01-.495-.688 4.01 4.01 0 01-.219-.805 4.95 4.95 0 01.217-2.665c.059-.257.144-.501.248-.736.541-1.164 1.153-2.225 1.59-3.374-.656.958-1.433 1.977-2.52 2.333a2.58 2.58 0 01-.69.129c-1.721.147-3.109-.89-4.176-2.106a11.53 11.53 0 01-.224-.264 2.237 2.237 0 01-.517-.961c0 .331.121.664.269.951l.104.198c.036.066.07.131.107.197.107.196.216.394.322.593.363.511.576 1.032.667 1.552a3.51 3.51 0 01.009 1.148 6.62 6.62 0 01-.621 2.08c-.041.097-.079.193-.118.29-.078.193-.157.384-.234.577-.043.101-.084.198-.128.292-.306.665-.738 1.234-1.441 1.603a.63.63 0 01-.292.075c.083.008.164.008.244.001.632-.019 1.058-.384 1.446-.806l.191-.213c.066-.059.129-.119.193-.18.67-.612 1.726-1.788 2.509-.823.693.844-.211 1.839-.733 2.521a5.23 5.23 0 01-.212.238c-.532.678-1.044 1.341-1.678 1.944-.15.15-.301.332-.375.557a3.21 3.21 0 00-.129.272c-.152.374-.209.769-.099 1.191a.761.761 0 00.078.177c.184.308.61.653 1.039.577a.949.949 0 00.281-.103c.413-.235.57-.767.759-1.189.039-.11.076-.213.114-.315.382-1.021 1.012-1.937 1.982-2.501.099-.059.199-.113.303-.161a2.975 2.975 0 011-.271c.07.006.143.016.214.03.216.044.443.134.682.281.063.048.121.1.178.156a1.91 1.91 0 01.631.863c.033.087.061.177.085.269.312 1.011.01 2.126-.676 2.948a13.347 13.347 0 01-.344.457 11.77 11.77 0 01-.156.214 15.34 15.34 0 00-.187.258l-.133.221c-.044.077-.09.153-.132.232-.261.541-.563 1.143-.39 1.785.024.088.057.175.099.263a.78.78 0 00.203.312c.091.08.204.124.339.109.25-.058.578-.058.724-.512a4.3 4.3 0 01.187-.485c.216-.47.517-.894.909-1.232a6.933 6.933 0 011.588-1.061 3.926 3.926 0 01.359-.145c.696-.273 1.48-.243 2.216-.12.116.02.229.041.342.064.788.173 1.555.461 2.287.736.104.043.21.089.314.135 2.153.967 4.252 2.205 6.266 3.522.229.144.455.29.682.44.227.151.45.305.674.461.221.159.438.32.653.485a18.495 18.495 0 011.837 1.603c.205.187.405.375.605.567.399.382.794.773 1.188 1.169.215.23.424.468.624.71a20.045 20.045 0 012.522 3.938c.189.302.377.611.561.93.847 1.566 1.438 3.243 1.865 4.979.07.29.136.582.199.874.067.269.129.536.188.808.043.178.084.357.122.537a54.845 54.845 0 01.521 3.269c.202 1.41.282 2.793.305 4.169.003.274.006.552.006.833v.77c0 .257-.003.513-.006.768.006.828-.013 1.67-.048 2.514-.012.282-.026.563-.04.846l-.034.642a40.298 40.298 0 01-.177 3.121c-.176 2.298-.505 4.515-.699 6.819-.052.435-.112.864-.185 1.292-.022.177-.049.354-.07.53a36.182 36.182 0 00-.243 2.135c-.021.244-.034.492-.046.744-.082.712.41 1.777 1.247 1.37a1.2 1.2 0 00.518-.552c.161-.283.256-.623.3-.964.08-.759.153-1.52.222-2.284.018-.193.033-.382.05-.572l.093-1.175c.116-2.337.444-4.554.767-6.824.063-.551.119-1.103.163-1.656a34.19 34.19 0 00.096-1.674c.015-.311.024-.618.028-.927a38.177 38.177 0 00.023-3.279c-.009-.274-.02-.548-.031-.821-.015-.273-.031-.55-.049-.824-.011-.308-.022-.606-.035-.906a113.283 113.283 0 00-.26-4.448c-.023-.283-.05-.566-.08-.847-.088-.845-.2-1.681-.352-2.508a41.413 41.413 0 00-.1-.598c-.048-.252-.099-.5-.151-.749a58.97 58.97 0 00-.926-3.711 49.482 49.482 0 00-.193-.582 26.429 26.429 0 00-.272-.793c-.569-1.575-1.276-3.093-2.296-4.495a27.878 27.878 0 00-.341-.523c.195.063.391.116.587.166.92.243 1.972.332 2.994.331.202-.001.404-.006.607-.016.202-.01.407-.022.611-.038 2.831-.266 5.604-.787 8.115-1.94.348-.152.689-.315 1.025-.491a17.507 17.507 0 003.483-2.42c.354-.312.699-.639 1.026-.975 1.425-1.454 2.388-3.31 3.42-5.014.287-.526.559-1.06.818-1.597.257-.537.501-1.08.729-1.625l.232-.551c.908-2.014 1.689-4.092 2.783-6.025.154-.276.316-.549.487-.819.252-.455.514-.901.784-1.344l.407-.661c.946-1.583 1.998-3.263 2.702-5.029.06-.172.116-.347.169-.524.048-.177.097-.356.139-.538.018-.221.071-.574.02-.861-.048-.287-.202-.508-.593-.464-.341.088-.424.442-.63.722-.185.265-.37.575-.533.867z"></path><path d="M70.292 6.913c-.945 2.066-3.498 1.787-5.297 2.364-.26.079-.508.176-.738.302-1.696 1.009-3.143 2.68-5.279 2.638-.204.004-.41.01-.615.02-1.026.046-2.055.167-3.101.454l-.633.153c-.213.051-.425.102-.639.149a8.05 8.05 0 01-.846.121c-2.285.208-4.705-.546-5.215-3.23-.089-.326-.664-.316-.97-.167a2.076 2.076 0 00-.514.189c-1.617 1.104-1.537 3.514-.323 4.944.192.255.399.472.618.655.154.138.32.25.492.344.173.095.354.17.54.233.375.043.816.211 1.141.271.278.026.563.032.856.02.255-.01.513-.031.775-.063 2.26-.526 4.708-1.313 7.138-.818a11.41 11.41 0 011.56.197 6.089 6.089 0 001.504-.18 8.031 8.031 0 001.683-.645c.18-.09.355-.184.53-.282l.604-.454c.2-.171.399-.339.6-.503a16.575 16.575 0 012.295-1.73c.962-.499 1.939-1.011 3.084-1.28 1.227-.27 2.112-1.189 2.729-2.277.141-.214.26-.44.362-.677.103-.238.188-.487.248-.748.182-1.046-.34-2.515-1.591-2.546-.316.197-.427.46-.487.74-.06.281-.063.579-.162.848-.1.307-.218.625-.349.958z"></path></g><!----></svg>