<svg data-v-423bf9ae="" xmlns="http://www.w3.org/2000/svg" viewBox="0 0 311.6355217237203 60" class="font"><!----><!----><!----><g data-v-423bf9ae="" id="8a8e88c6-2e45-46f6-80c6-ae6a583ad0c8" fill="black" transform="matrix(4.672897140729944,0,0,4.672897140729944,-1.9626192383780676,-10.841120816125354)"><path d="M4.97 14.79L4.97 14.79Q4.42 14.79 3.87 14.70Q3.32 14.60 2.82 14.37Q2.31 14.14 1.87 13.75Q1.44 13.36 1.11 12.79Q0.79 12.21 0.60 11.42Q0.42 10.63 0.42 9.58L0.42 9.58Q0.42 8.54 0.60 7.75Q0.79 6.96 1.11 6.38Q1.44 5.80 1.87 5.42Q2.31 5.04 2.82 4.81Q3.32 4.58 3.87 4.48Q4.42 4.39 4.97 4.39L4.97 4.39Q5.52 4.39 6.07 4.48Q6.62 4.58 7.13 4.81Q7.64 5.04 8.07 5.42Q8.51 5.80 8.83 6.38Q9.15 6.96 9.34 7.75Q9.52 8.54 9.52 9.58L9.52 9.58Q9.52 10.73 9.30 11.57Q9.08 12.41 8.70 13.00L8.70 13.00L9.67 14.38Q9.74 14.49 9.74 14.57L9.74 14.57Q9.74 14.67 9.68 14.74Q9.61 14.81 9.53 14.86L9.53 14.86L9.10 15.10Q9.05 15.13 9.00 15.15Q8.96 15.16 8.90 15.16L8.90 15.16Q8.82 15.16 8.74 15.11Q8.67 15.07 8.61 14.95L8.61 14.95L7.99 13.82Q7.67 14.10 7.31 14.28Q6.95 14.46 6.56 14.58Q6.17 14.69 5.77 14.74Q5.37 14.79 4.97 14.79ZM7.05 11.63L7.37 11.46Q7.53 11.35 7.67 11.54L7.67 11.54L8.02 12.04Q8.25 11.70 8.40 11.10Q8.55 10.51 8.55 9.58L8.55 9.58Q8.55 8.73 8.43 8.16Q8.30 7.58 8.09 7.23Q7.88 6.88 7.62 6.74Q7.35 6.59 7.07 6.59L7.07 6.59Q6.79 6.59 6.52 6.74Q6.26 6.88 6.05 7.23Q5.84 7.58 5.71 8.16Q5.58 8.73 5.58 9.58L5.58 9.58Q5.58 10.44 5.71 11.01Q5.84 11.59 6.05 11.94Q6.26 12.28 6.52 12.43Q6.79 12.58 7.07 12.58L7.07 12.58Q7.20 12.58 7.31 12.55L7.31 12.55L6.97 11.93Q6.92 11.84 6.94 11.76Q6.95 11.68 7.05 11.63L7.05 11.63ZM15.61 8.66L15.61 12.86Q15.61 13.25 15.73 13.43Q15.86 13.62 16.17 13.62L16.17 13.62Q16.32 13.62 16.50 13.55Q16.67 13.48 16.77 13.42L16.77 13.42L16.77 7.85Q16.77 7.73 16.82 7.63Q16.87 7.53 17.05 7.53L17.05 7.53L17.49 7.53Q17.55 7.53 17.61 7.53Q17.67 7.54 17.72 7.57Q17.76 7.60 17.79 7.67Q17.82 7.73 17.82 7.85L17.82 7.85L17.82 14.21Q17.82 14.32 17.79 14.39Q17.76 14.45 17.72 14.48Q17.67 14.51 17.61 14.52Q17.55 14.53 17.49 14.53L17.49 14.53L17.05 14.53Q16.87 14.53 16.82 14.42Q16.77 14.32 16.77 14.10L16.77 14.10Q16.62 14.15 16.35 14.25Q16.08 14.34 15.67 14.43Q15.26 14.53 14.70 14.59Q14.14 14.66 13.43 14.66L13.43 14.66Q12.69 14.66 12.15 14.54Q11.61 14.42 11.26 14.14Q10.91 13.86 10.74 13.42Q10.57 12.97 10.57 12.33L10.57 12.33L10.57 8.48Q10.57 8.24 10.61 8.06Q10.65 7.88 10.77 7.77Q10.88 7.65 11.09 7.59Q11.29 7.53 11.62 7.53L11.62 7.53L14.62 7.53Q15.01 7.53 15.22 7.64Q15.42 7.76 15.51 7.93Q15.60 8.10 15.60 8.30Q15.61 8.50 15.61 8.66L15.61 8.66ZM19.08 13.58L19.08 8.48Q19.08 8.24 19.12 8.06Q19.16 7.88 19.28 7.77Q19.39 7.65 19.60 7.59Q19.80 7.53 20.13 7.53L20.13 7.53L23.13 7.53Q23.44 7.53 23.63 7.59Q23.82 7.65 23.93 7.77Q24.04 7.90 24.08 8.08Q24.12 8.26 24.12 8.51L24.12 8.51L24.12 9.02L25.63 7.54Q25.79 7.40 25.92 7.40L25.92 7.40Q25.99 7.40 26.05 7.43Q26.11 7.46 26.15 7.50L26.15 7.50L26.46 7.82Q26.56 7.92 26.56 8.05L26.56 8.05Q26.56 8.12 26.51 8.20Q26.47 8.28 26.37 8.35L26.37 8.35L24.12 10.10L24.12 13.56Q24.12 13.80 24.08 13.98Q24.05 14.16 23.93 14.28Q23.82 14.40 23.60 14.46Q23.38 14.53 23.00 14.53L23.00 14.53L20.13 14.53Q19.80 14.53 19.60 14.46Q19.39 14.40 19.28 14.29Q19.16 14.17 19.12 13.99Q19.08 13.82 19.08 13.58L19.08 13.58ZM26.67 13.58L26.67 8.48Q26.67 8.24 26.71 8.06Q26.76 7.88 26.87 7.77Q26.99 7.65 27.19 7.59Q27.40 7.53 27.73 7.53L27.73 7.53L30.72 7.53Q31.04 7.53 31.23 7.58Q31.42 7.64 31.53 7.76Q31.64 7.88 31.68 8.05Q31.71 8.23 31.71 8.48L31.71 8.48L31.71 13.59Q31.71 13.82 31.68 14.00Q31.64 14.17 31.53 14.29Q31.42 14.41 31.23 14.47Q31.04 14.53 30.72 14.53L30.72 14.53L27.73 14.53Q27.40 14.53 27.19 14.46Q26.99 14.40 26.87 14.29Q26.76 14.17 26.71 13.99Q26.67 13.82 26.67 13.58L26.67 13.58ZM26.93 4.60L26.93 4.60Q26.93 4.13 27.11 3.71Q27.29 3.29 27.60 2.99Q27.90 2.68 28.32 2.50Q28.74 2.32 29.21 2.32L29.21 2.32Q29.67 2.32 30.09 2.50Q30.50 2.68 30.81 2.99Q31.12 3.29 31.30 3.71Q31.48 4.13 31.48 4.60L31.48 4.60Q31.48 5.07 31.30 5.48Q31.12 5.89 30.81 6.20Q30.50 6.51 30.09 6.69Q29.67 6.87 29.21 6.87L29.21 6.87Q28.74 6.87 28.32 6.69Q27.90 6.51 27.60 6.20Q27.29 5.89 27.11 5.48Q26.93 5.07 26.93 4.60ZM36.92 14.77L36.92 14.77Q36.41 14.77 35.90 14.68Q35.38 14.60 34.91 14.42Q34.45 14.25 34.04 13.96Q33.64 13.67 33.34 13.25Q33.04 12.84 32.87 12.29Q32.70 11.74 32.70 11.03L32.70 11.03Q32.70 10.33 32.87 9.78Q33.04 9.23 33.34 8.81Q33.64 8.39 34.04 8.10Q34.45 7.81 34.91 7.63Q35.38 7.45 35.90 7.37Q36.41 7.29 36.92 7.29L36.92 7.29Q37.39 7.29 37.89 7.35Q38.38 7.40 38.85 7.56Q39.32 7.71 39.73 7.97Q40.15 8.24 40.46 8.65Q40.77 9.06 40.95 9.63Q41.13 10.20 41.13 10.97L41.13 10.97Q41.13 11.76 40.95 12.36Q40.78 12.95 40.47 13.37Q40.15 13.79 39.74 14.06Q39.33 14.33 38.87 14.49Q38.40 14.64 37.90 14.70Q37.40 14.77 36.92 14.77ZM39.02 13.13L39.02 13.13Q39.23 13.13 39.44 13.03Q39.65 12.94 39.81 12.70Q39.97 12.46 40.07 12.04Q40.17 11.62 40.17 10.97L40.17 10.97Q40.17 10.36 40.07 9.96Q39.97 9.56 39.81 9.33Q39.64 9.11 39.44 9.02Q39.23 8.93 39.02 8.93L39.02 8.93Q38.86 8.93 38.65 9.00Q38.45 9.06 38.28 9.29Q38.10 9.51 37.99 9.92Q37.87 10.34 37.87 11.03L37.87 11.03Q37.87 11.72 37.97 12.13Q38.06 12.55 38.22 12.77Q38.38 12.99 38.59 13.06Q38.79 13.13 39.02 13.13ZM45.11 4.71L46.13 4.71Q46.25 4.71 46.34 4.74Q46.43 4.77 46.50 4.85Q46.57 4.92 46.63 5.04Q46.70 5.17 46.76 5.35L46.76 5.35L49.90 13.73Q49.94 13.82 49.95 13.90Q49.96 13.97 49.96 14.05L49.96 14.05Q49.96 14.29 49.82 14.41Q49.67 14.53 49.51 14.53L49.51 14.53L45.63 14.53Q45.45 14.53 45.33 14.48Q45.21 14.44 45.13 14.38Q45.05 14.31 45.00 14.25Q44.96 14.18 44.95 14.12L44.95 14.12L44.87 13.88L42.95 13.88L42.90 14.09Q42.88 14.19 42.85 14.27Q42.83 14.35 42.79 14.41Q42.75 14.46 42.67 14.50Q42.60 14.53 42.49 14.53L42.49 14.53L41.78 14.53Q41.56 14.53 41.56 14.36L41.56 14.36Q41.56 14.29 41.59 14.21Q41.61 14.12 41.65 14.01L41.65 14.01L44.51 5.36Q44.61 5.04 44.74 4.88Q44.87 4.72 45.11 4.71L45.11 4.71ZM43.88 10.37L43.16 13.04L44.64 13.04L43.88 10.37ZM50.66 13.58L50.66 8.48Q50.66 8.24 50.70 8.06Q50.74 7.88 50.86 7.77Q50.98 7.65 51.18 7.59Q51.39 7.53 51.71 7.53L51.71 7.53L54.51 7.53Q54.82 7.53 55.04 7.59Q55.26 7.65 55.36 7.80L55.36 7.80Q55.45 7.74 55.57 7.67Q55.70 7.59 55.85 7.53Q56 7.47 56.17 7.43Q56.34 7.39 56.53 7.39L56.53 7.39Q57.18 7.39 57.55 7.84Q57.91 8.29 57.91 9.17L57.91 9.17L57.91 14.21Q57.91 14.32 57.88 14.39Q57.85 14.45 57.81 14.48Q57.76 14.51 57.70 14.52Q57.64 14.53 57.58 14.53L57.58 14.53L57.14 14.53Q56.96 14.53 56.91 14.42Q56.86 14.32 56.86 14.21L56.86 14.21L56.86 9.10Q56.86 8.71 56.72 8.50Q56.58 8.30 56.27 8.30L56.27 8.30Q56.12 8.30 55.96 8.38Q55.79 8.47 55.70 8.57L55.70 8.57L55.70 13.57Q55.70 13.81 55.66 13.99Q55.62 14.16 55.50 14.28Q55.38 14.40 55.18 14.46Q54.97 14.53 54.65 14.53L54.65 14.53L51.71 14.53Q51.39 14.53 51.18 14.46Q50.98 14.40 50.86 14.29Q50.74 14.17 50.70 13.99Q50.66 13.82 50.66 13.58L50.66 13.58ZM64.05 7.29L64.05 7.29Q64.48 7.29 64.92 7.34Q65.36 7.39 65.75 7.47Q66.14 7.55 66.47 7.65Q66.79 7.75 67.00 7.85L67.00 7.85Q67.03 7.86 67.07 7.89Q67.11 7.92 67.11 7.99L67.11 7.99Q67.11 8.01 67.10 8.05Q67.09 8.08 67.09 8.11L67.09 8.11L67.01 8.52Q66.99 8.60 66.97 8.62Q66.94 8.63 66.92 8.63L66.92 8.63Q66.89 8.63 66.79 8.61Q66.70 8.59 66.59 8.59L66.59 8.59Q66.20 8.59 65.97 8.80Q65.75 9.01 65.69 9.53L65.69 9.53L65.30 12.72Q65.25 13.15 65.02 13.51Q64.79 13.88 64.36 14.16Q63.93 14.44 63.30 14.60Q62.67 14.77 61.82 14.77L61.82 14.77Q61.28 14.77 60.78 14.70Q60.27 14.64 59.85 14.54Q59.42 14.45 59.10 14.36Q58.78 14.27 58.63 14.21L58.63 14.21Q58.57 14.20 58.54 14.17Q58.51 14.15 58.51 14.10L58.51 14.10Q58.51 14.07 58.52 14.03Q58.52 14 58.54 13.95L58.54 13.95L58.62 13.57Q58.63 13.51 58.67 13.48Q58.70 13.45 58.79 13.45L58.79 13.45Q59.01 13.45 59.24 13.42Q59.47 13.40 59.67 13.30Q59.86 13.19 60.01 12.98Q60.16 12.77 60.21 12.39L60.21 12.39L60.69 9.09Q60.76 8.57 61.07 8.22Q61.38 7.88 61.83 7.67Q62.29 7.46 62.86 7.37Q63.44 7.29 64.05 7.29Z"></path></g><!----><!----></svg>